<svg width="115" height="35" viewBox="0 0 115 35" fill="none" xmlns="http://www.w3.org/2000/svg">
<path d="M46.9011 11.7533C46.1465 9.68054 44.3009 8.40267 41.9174 8.25409C40.7667 8.06092 39.474 8.13522 38.4056 8.17236C38.301 8.17236 36.5301 8.32095 36.4853 8.8633C36.3807 10.1783 36.3209 11.5007 36.3209 12.8158C36.3209 12.8158 36.2387 16.1218 36.3433 17.3848C36.4554 18.6478 36.6646 20.5201 36.9112 21.3001C37.1802 22.162 37.3595 22.2808 37.1652 22.578C37.0681 22.7266 36.9635 22.89 37.0307 23.3878C37.3147 23.8484 37.8302 23.9747 38.3308 24.0936L38.5251 24.1456C38.6372 24.153 38.7493 24.1605 38.8613 24.1605C41.6409 24.1605 43.7554 21.367 45.3021 19.3314L45.4217 19.1753C47.2822 16.7311 47.738 14.4354 46.9011 11.7533ZM40.3184 19.7325C40.3184 19.7325 40.1092 16.8871 40.1316 16.0921C40.139 15.7727 40.154 15.4606 40.139 15.156C40.1316 14.9629 40.1092 14.74 40.0867 14.4874C39.9971 13.5958 39.8925 12.4814 40.3258 11.8128C40.3557 11.7608 40.3931 11.7162 40.4304 11.6716C40.5948 11.6568 40.7667 11.6419 40.9385 11.6345C41.8202 11.9762 43.7704 12.5334 43.2623 15.2155C43.0307 16.4339 40.3109 19.74 40.3109 19.74" fill="#3D2482"/>
<path d="M34.5276 18.4175C34.5276 18.3655 34.4753 15.8395 34.438 14.6731C34.3857 12.9866 34.3334 11.2481 34.4828 9.4948L34.5501 9.23477C33.8402 8.49183 33.0108 7.91976 32.0918 7.53343C30.306 8.38782 30.2911 8.98217 30.2612 10.6909L30.1641 15.3492V15.5498C30.179 16.2333 30.2388 16.9242 30.306 17.5929C30.3583 18.2021 30.4181 18.8261 30.4405 19.4428C30.448 19.7028 30.3733 21.0253 30.3509 21.9465C30.3509 22.1991 30.4704 22.3626 30.6348 22.4517C30.6348 22.4517 32.1516 23.7444 32.8988 24.2348C33.2574 24.4651 33.6908 24.2199 33.8178 23.8633C34.5725 21.6939 34.819 20.7058 34.5351 18.4324" fill="#3D2482"/>
<path d="M17.7308 17.0059C17.8803 13.9822 18.1119 12.838 18.3809 9.51709C17.3871 8.9896 16.6922 8.66271 16.2215 8.52155C16.214 8.52155 16.1916 8.51412 16.1916 8.50669C16.087 8.49926 16.0123 8.49183 15.96 8.49183V8.51412C15.3622 8.54383 15.011 8.89302 14.8467 9.61367C14.6972 10.2749 14.7346 10.5052 14.7719 11.1961C14.7794 11.4339 14.615 17.4071 14.5478 17.6895C14.5328 17.7489 14.5179 17.8083 14.5104 17.8678C13.554 15.8098 12.6948 13.7073 11.9177 11.5676C11.7384 10.8024 11.4843 10.6909 11.0883 10.1263C10.7446 9.64339 9.16802 8.49926 8.11448 8.49926C7.65869 8.49926 7.38223 8.72214 7.27015 9.18276L7.25521 9.24963C7.05347 10.2526 6.97128 10.8618 6.90403 12.0431L7.06094 15.3789C6.98622 16.6716 6.99369 17.9718 7.00117 19.2273C7.00117 19.9034 7.00864 19.3388 7.00117 20.0223C7.00117 20.0223 7.09083 23.4844 7.1506 23.685C7.16555 23.7296 7.17302 23.7741 7.18796 23.8187C7.21038 23.9079 7.2328 23.9599 7.2328 23.9599V23.9376C7.36729 24.1976 7.58397 24.3834 7.94263 24.3759C8.75706 24.3536 9.60886 23.8113 10.1991 23.2987C10.4308 23.0981 10.356 20.4903 10.3037 19.7103C10.2589 18.9822 10.4457 16.8128 10.3411 15.8618L10.2888 14.4502C10.3336 14.5319 10.3785 14.6211 10.4233 14.7028H10.4158C10.4158 14.7028 10.4382 14.7251 10.4607 14.7697C10.5877 14.9926 12.6948 19.6285 12.7545 19.896C12.8741 20.4681 13.6736 22.9792 13.7483 23.0981C13.7707 23.1724 13.7857 23.2541 13.8081 23.3284C13.9276 23.6999 14.1966 23.997 14.6225 23.9673C15.1082 23.9302 15.6013 23.4918 15.9899 23.2318C16.4755 22.9049 16.9313 22.5632 17.3946 22.1991C17.5067 22.11 17.559 22.0134 17.5814 21.9168C17.5888 21.9094 17.6038 21.9019 17.6038 21.8796C17.6262 21.7013 17.7906 19.3239 17.7607 18.5364C17.7383 17.9718 17.7159 17.4443 17.7383 17.0134" fill="#3D2482"/>
<path d="M95.4386 19.636C95.2667 19.3388 93.3539 16.3224 93.3838 16.263C94.1534 15.7355 96.2082 14.584 96.6191 13.789C96.6191 13.789 97.6129 12.63 97.3215 10.4829C96.9255 7.63002 92.6964 8.22437 91.6055 8.59584C89.872 9.18277 88.7736 9.81427 88.7736 9.81427C88.7064 9.45022 88.4748 9.08618 88.2581 8.98217C87.4287 9.21248 86.5395 9.78455 86.0763 10.364C85.6578 10.8915 86.1883 15.6612 86.0314 17.0431C86.009 17.2883 85.9642 17.5706 85.9268 17.8826C85.7251 19.3462 85.4561 21.3596 85.8969 22.4517C86.1659 23.1055 87.339 23.5513 88.288 23.9079C88.5495 24.0045 88.8035 24.101 89.0127 24.1902C89.1696 24.1753 89.6927 24.101 89.7226 23.8633C89.2743 21.4859 89.2145 19.6062 89.5208 17.9643C89.5955 17.9421 89.6703 17.9123 89.7001 17.9049C89.745 17.89 89.7898 17.8826 89.8421 17.8752C90.1485 17.8826 90.6267 19.2645 90.933 19.5691C91.075 19.7474 91.2095 19.9257 91.344 20.1114C91.9118 20.8767 94.258 22.89 95.1023 23.3061C95.1247 23.3358 95.1546 23.3581 95.1995 23.3804C95.8271 23.6776 96.7835 23.7444 97.5232 23.6999C97.5307 23.6999 97.5456 23.6999 97.5606 23.6999C97.5755 23.6999 97.583 23.6999 97.5905 23.6999C97.5905 23.6999 97.6054 23.6999 97.6129 23.6999C97.6278 23.6999 97.6278 23.6999 97.6428 23.6924C97.7698 23.6701 97.8669 23.6404 97.9267 23.5736C98.0089 23.4844 98.0313 23.3284 97.9865 23.1204V22.4666C97.9865 22.4666 96.2455 20.9881 95.7225 20.104C95.6254 19.948 95.5432 19.7994 95.461 19.6582M93.7499 13.0238C93.1148 13.9227 91.8819 14.4874 90.6042 14.8366C90.0588 14.9851 89.5582 15.0594 89.5731 15.0743C89.5731 15.0743 89.5582 14.1456 89.5432 13.8484C89.5432 13.7519 89.5358 13.6553 89.5283 13.5513C89.5133 13.2764 89.4984 12.9941 89.476 12.7192C90.1634 11.8128 90.9778 11.471 92.3004 11.263C93.7424 11.0327 94.4971 11.9614 93.7424 13.0238" fill="#3D2482"/>
<path d="M58.9906 10.6909C58.8636 10.3789 58.2957 9.90342 58.109 9.71025C57.8325 9.4205 55.8674 8.64042 55.2024 8.69242C53.8873 8.789 53.1924 9.03417 51.8849 9.24963C51.5935 8.95988 50.114 8.79643 50.114 8.79643C50.114 8.79643 48.8587 9.10104 48.6869 10.5201C48.6495 10.8692 48.53 11.2556 48.4777 11.7088L48.4478 11.9316C48.4328 12.0654 48.403 16.3224 48.403 16.3224C48.4478 16.9019 48.4254 17.5632 48.403 18.2467C48.3432 20.1783 48.9559 23.7667 51.5187 23.9896C51.5785 23.9896 52.1539 24.0267 52.3631 23.8187C52.4976 23.6924 52.5872 23.5513 52.6545 23.4101C52.7217 23.4101 56.2858 22.786 56.4502 22.6746C57.3394 22.0059 58.0567 21.159 58.5722 20.1634C58.6245 19.8663 58.5872 19.7177 58.5423 19.6582C58.5423 19.6508 58.5199 19.636 58.4975 19.6137C58.505 19.5914 58.4975 19.5765 58.4676 19.584C58.236 19.4131 57.4888 19.5691 57.0778 19.6211C55.8898 19.7623 54.0368 20.1857 52.8562 20.5572C52.8562 20.5349 52.8712 20.5126 52.8712 20.4903C52.8712 19.9257 52.7815 18.7519 52.789 18.2912C52.789 18.2912 52.789 18.2912 52.789 18.2838C52.789 18.1947 52.8189 17.1842 52.8189 17.1842L54.2086 16.9242C54.4477 16.8796 54.6868 16.8351 54.9259 16.7905C55.5984 16.6642 56.4502 16.6419 57.0106 16.2184L57.3244 15.7281C57.287 15.6166 56.8163 14.2273 56.7341 14.1976C56.7341 14.1976 56.7267 14.1902 56.7192 14.1828C56.368 13.9227 55.9122 14.0416 55.5013 14.0788C54.3655 14.1976 53.8649 14.3611 52.7367 14.5542L52.5872 12.5409L52.7441 12.5111C52.901 12.4814 53.1103 12.4443 53.3643 12.3923C55.0604 12.0802 58.9159 11.8871 59.0355 10.7207C59.028 10.7058 58.9981 10.6909 58.9832 10.6761" fill="#3D2482"/>
<path d="M28.7145 9.94799C26.2712 6.64933 20.2339 8.58841 19.5241 12.6672C19.1355 14.8811 20.2862 16.0104 22.0496 16.9019C22.8117 17.2883 23.6784 17.6077 24.3136 18.2244C25.0608 18.9599 26.1218 21.0921 24.1865 21.4859C23.7532 21.575 22.595 21.0401 22.3036 20.6984C21.4369 19.6805 18.0671 21.9094 18.6499 22.6003C21.2874 25.7058 26.9586 23.0906 28.5427 19.9851C30.2761 16.5825 26.2861 15.5349 24.3659 14.1308C23.4692 13.4695 23.0134 12.6672 23.1853 11.4487C23.3123 10.5646 23.2974 10.6612 23.8354 10.8172C24.2463 10.9287 24.8067 11.4933 25.0682 11.8425C25.8528 12.8975 29.2973 10.7281 28.722 9.94056" fill="#3D2482"/>
<path d="M4.85672 1.88707C4.64003 1.6419 3.07094 0.326894 0.859253 0.38633C0.620152 0.393759 0.381052 0.416047 0.149423 0.453194C-0.351194 3.64785 0.582793 12.9198 0.537962 15.4086L0.515546 16.4264C0.485658 17.7266 0.463243 19.0788 0.463243 20.4012C0.463243 20.6018 0.485658 20.8618 0.508074 21.1293C0.582793 21.9539 0.664984 22.8826 0.291389 23.3507C0.709815 25.7504 1.38976 26.3596 2.42088 26.5825L3.57155 26.4413C3.57155 26.4413 3.60891 26.3819 3.62386 26.3447C3.6388 26.3299 3.66122 26.3076 3.67616 26.2704C4.93144 22.8826 4.58026 18.6924 4.5429 15.0966C4.51301 11.9019 4.85672 1.87964 4.85672 1.87964" fill="#3D2482"/>
<path d="M113.558 13.4101C113.304 13.4027 113.05 13.4101 112.796 13.4101C110.763 5.89153 104.726 8.3581 103.351 10.6464C103.105 11.055 103.837 12.6969 103.986 12.63C104.763 12.318 105.608 11.7459 106.46 11.8425C108.193 12.0505 108.709 12.9941 108.97 13.7816C106.325 14.2793 103.792 15.2155 101.319 16.3744C101.065 14.8217 101.416 13.0386 102.305 11.3076C102.746 10.4458 102.328 9.36107 102.029 8.84844C101.902 8.62556 100.908 9.03417 100.564 9.39822C98.9429 11.0921 98.3227 13.945 98.2779 15.8767C98.2704 16.4339 98.375 17.0802 98.5618 17.7489C98.2181 17.9272 97.8819 18.1129 97.5382 18.2987C96.6864 18.7593 98.2629 21.1516 99.2268 20.6315C99.3763 20.5498 99.5257 20.4681 99.6751 20.3938C100.168 21.2481 100.766 22.0505 101.446 22.682C102.447 23.6256 104.412 24.5691 107.797 23.7073C110.704 22.9718 113.132 19.5914 113.147 15.9064C113.565 15.8915 113.984 15.8841 114.41 15.899C115.762 15.9361 114.499 13.4398 113.558 13.4101ZM108.709 18.6776C107.894 19.8514 106.781 20.2972 105.757 20.2972C103.986 20.2229 103.217 19.7994 102.5 18.945C104.756 17.8529 107.072 16.9316 109.471 16.3893C109.471 17.2288 109.239 17.9049 108.701 18.6776" fill="#3D2482"/>
<path d="M85.1124 10.8098C84.9928 10.4978 84.4325 10.0074 84.2531 9.80684C83.9841 9.50966 82.034 8.69242 81.369 8.72214C80.0539 8.789 79.3516 9.01932 78.044 9.20505C77.76 8.90788 76.2806 8.71471 76.2806 8.71471C76.2806 8.71471 75.0179 8.9896 74.8161 10.4086C74.7713 10.7504 74.6443 11.1367 74.577 11.5973L74.5471 11.8202C74.5247 11.9539 74.4052 16.2036 74.4052 16.2036C74.4351 16.7905 74.4052 17.4443 74.3603 18.1278C74.2557 20.0594 74.7937 23.6553 77.3491 23.945C77.4089 23.945 77.9767 23.9896 78.2009 23.7964C78.3354 23.6701 78.4325 23.5364 78.4998 23.3952C78.567 23.3952 82.146 22.8529 82.3179 22.7415C83.222 22.0951 83.9543 21.263 84.4922 20.2749C84.552 19.9777 84.5146 19.8291 84.4698 19.7697C84.4698 19.7623 84.4474 19.7474 84.425 19.7251C84.4324 19.7028 84.425 19.688 84.3951 19.6954C84.1709 19.5245 83.4163 19.6582 83.0053 19.6954C81.8173 19.8068 79.9568 20.1857 78.7613 20.5349C78.7613 20.5126 78.7762 20.4903 78.7762 20.4681C78.7912 19.9034 78.7239 18.7296 78.7463 18.2689C78.7463 18.1798 78.7986 17.1694 78.7986 17.1694L80.1884 16.9391C80.4275 16.9019 80.6741 16.8574 80.9132 16.8202C81.5857 16.7088 82.4449 16.7088 83.0128 16.3001L83.3341 15.8172C83.3042 15.7058 82.8559 14.3016 82.7737 14.2719C82.7737 14.2719 82.7662 14.2571 82.7588 14.2571C82.415 13.9896 81.9593 14.0936 81.5408 14.1308C80.4051 14.2199 79.897 14.3759 78.7688 14.5468L78.6641 12.526L78.8211 12.4963C78.978 12.4666 79.1947 12.4369 79.4487 12.3923C81.1523 12.1248 85.0078 12.0134 85.1498 10.8395C85.1423 10.8247 85.1124 10.8098 85.0975 10.7949" fill="#3D2482"/>
<path d="M72.9183 10.416C72.9183 10.3195 72.9183 10.26 72.9183 10.2155C72.8734 8.06835 72.7688 5.89153 72.582 3.56612C72.3877 1.15156 71.2296 0.0742942 68.7265 0C68.6443 1.65676 68.6144 4.07132 68.5846 6.20357C68.5621 7.99406 68.5397 9.13076 68.5173 9.78455C67.4862 10.0149 67.0752 10.2303 66.0292 10.4235L66.2458 2.70431C66.0366 2.45171 65.1251 1.09212 62.9134 1.09212C62.6743 1.09212 62.4352 1.10698 62.1961 1.1367C61.6133 4.31649 61.5909 7.6523 61.6282 11.3596C61.6282 11.3819 61.6282 11.4116 61.6282 11.4339C60.7914 11.4562 60.4028 11.6568 60.4477 12.5409C60.4775 13.1204 60.5597 13.5438 60.7092 14.2348C61.0529 14.9629 61.561 15.0966 61.6432 15.3715C61.7478 15.7281 61.8748 21.2853 61.7552 23.7741L61.7029 24.7845C61.6357 26.0847 61.561 27.4294 61.5311 28.7519C61.5311 28.9525 61.546 29.2125 61.5684 29.4874C61.6282 30.312 61.6955 31.2407 61.2546 31.7013C61.673 34.1159 62.4352 34.7474 63.6232 35L64.333 34.9034C64.333 34.9034 64.3704 34.8514 64.3928 34.8068C64.4152 34.792 64.4377 34.7697 64.4526 34.74C65.9993 31.3967 65.7153 27.1917 65.7751 23.6033C65.8274 20.4086 65.9171 14.4799 65.9171 14.4799C65.9171 14.4799 67.277 13.9004 67.9494 13.789C68.1138 13.7667 68.4949 13.685 68.6817 13.6553C68.6966 13.6924 68.7116 13.737 68.7265 13.7816C68.9432 15.7429 68.9058 17.7637 69.0478 19.7251C69.1748 21.4487 69.0628 23.3284 69.5708 25.0074C69.937 26.2259 71.2446 27.7489 72.2906 26.1813C72.4699 25.9138 72.5596 25.4309 72.5447 25C72.5521 24.9777 72.5671 24.948 72.5671 24.9406C72.5671 24.7771 72.5671 24.3908 72.5671 24.2273C72.709 23.1575 72.6418 21.8722 72.582 20.8395C72.5521 20.3195 72.5297 19.8737 72.5297 19.5245C72.5596 17.3106 72.6792 15.052 72.7987 12.8752C72.8361 12.1917 72.9332 10.4309 72.9332 10.4309" fill="#3D2482"/>
</svg>
